#define question_mark_2x_width 16
#define question_mark_2x_height 16
static unsigned char question_mark_2x_bits[] = {
   0xc0, 0x0f, 0xe0, 0x1f, 0x70, 0x38, 0x30, 0x30, 0x00, 0x30, 0x00, 0x30,
   0x00, 0x18, 0x00, 0x1c, 0x00, 0x0e, 0x00, 0x07, 0x00, 0x03, 0x00, 0x03,
   0x00, 0x00, 0x00, 0x00, 0x00, 0x03, 0x00, 0x03 };
