#define x_2x_width 16
#define x_2x_height 16
static unsigned char x_2x_bits[] = {
   0x04, 0x10, 0x0e, 0x38, 0x1f, 0x7c, 0x3e, 0x7e, 0x7c, 0x3f, 0xf8, 0x1f,
   0xf0, 0x0f, 0xe0, 0x07, 0xf0, 0x07, 0xf8, 0x0f, 0xfc, 0x1f, 0x7e, 0x3e,
   0x3f, 0x7c, 0x1e, 0x78, 0x0c, 0x30, 0x00, 0x00 };
